<svg xmlns="http://www.w3.org/2000/svg" width="1100" height="520" viewBox="0 0 1100 520" role="img" aria-label="Receiver module placeholder">
  <defs>
    <marker id="arrow" markerWidth="10" markerHeight="10" refX="9" refY="3" orient="auto" markerUnits="strokeWidth"><path d="M0,0 L0,6 L9,3 z" fill="#2454a6"/></marker>
    <style>.box{fill:#fff;stroke:#2454a6;stroke-width:3;rx:16}.soft{fill:#eef4ff;stroke:#2454a6;stroke-width:3;rx:16}.txt{font-family:Arial,Helvetica,sans-serif;fill:#1d2733;font-size:24px;font-weight:700}.sub{font-family:Arial,Helvetica,sans-serif;fill:#5e6b78;font-size:17px}.arr{stroke:#2454a6;stroke-width:4;marker-end:url(#arrow)}</style>
  </defs>
  <rect width="1100" height="520" fill="#f8fbff"/>
  <text x="550" y="48" text-anchor="middle" class="txt">Codec-Aware Selective Edit-and-Replace Receiver</text>
  <rect x="48" y="185" width="190" height="120" class="box"/><text x="143" y="235" text-anchor="middle" class="txt">Received Tokens</text><text x="143" y="263" text-anchor="middle" class="sub">corrupted RVQ grid</text>
  <rect x="300" y="90" width="215" height="95" class="soft"/><text x="407" y="132" text-anchor="middle" class="txt">Codec-Aware</text><text x="407" y="160" text-anchor="middle" class="sub">token/codebook input</text>
  <rect x="300" y="220" width="215" height="95" class="soft"/><text x="407" y="262" text-anchor="middle" class="txt">Cross-Stage</text><text x="407" y="290" text-anchor="middle" class="sub">RVQ interaction</text>
  <rect x="300" y="350" width="215" height="95" class="soft"/><text x="407" y="392" text-anchor="middle" class="txt">Local Temporal</text><text x="407" y="420" text-anchor="middle" class="sub">continuity modeling</text>
  <rect x="595" y="155" width="230" height="120" class="box"/><text x="710" y="205" text-anchor="middle" class="txt">Context Encoder</text><text x="710" y="233" text-anchor="middle" class="sub">global token dependencies</text>
  <rect x="875" y="80" width="180" height="95" class="soft"/><text x="965" y="122" text-anchor="middle" class="txt">Edit Head</text><text x="965" y="150" text-anchor="middle" class="sub">keep or replace</text>
  <rect x="875" y="225" width="180" height="95" class="soft"/><text x="965" y="267" text-anchor="middle" class="txt">Token Heads</text><text x="965" y="295" text-anchor="middle" class="sub">stage-specific logits</text>
  <rect x="780" y="380" width="250" height="72" class="box"/><text x="905" y="424" text-anchor="middle" class="txt">Restored Token Sequence</text>
  <line x1="238" y1="245" x2="296" y2="138" class="arr"/><line x1="238" y1="245" x2="296" y2="268" class="arr"/><line x1="238" y1="245" x2="296" y2="398" class="arr"/>
  <path d="M515 138 C560 138 560 215 591 215" fill="none" class="arr"/><line x1="515" y1="268" x2="591" y2="215" class="arr"/><path d="M515 398 C565 398 565 245 591 245" fill="none" class="arr"/>
  <line x1="825" y1="215" x2="871" y2="127" class="arr"/><line x1="825" y1="215" x2="871" y2="272" class="arr"/><path d="M965 175 C965 250 965 320 905 376" fill="none" class="arr"/><path d="M965 320 C965 350 940 362 910 377" fill="none" class="arr"/>
</svg>
